<svg width="319" height="117" viewBox="0 0 319 117" fill="none" xmlns="http://www.w3.org/2000/svg">
<g filter="url(#filter0_dd_72_109)">
<path d="M302.655 11C308.178 11 312.655 15.4772 312.655 21V101C312.655 106.523 308.177 111 302.655 111H21.5443C16.0215 111 11.5444 106.523 11.5443 101V36H36.5443V11H302.655Z" fill="white"/>
<g filter="url(#filter1_f_72_109)">
<path d="M38.3095 32.9672C38.561 36.0969 35.8994 38.6812 32.7784 38.3376L11.5443 36L36.5443 11L38.3095 32.9672Z" fill="#787878" fill-opacity="0.64"/>
</g>
<path d="M36.5443 11V25.9999C36.5443 31.5228 32.0671 36 26.5443 36H11.5443L36.5443 11Z" fill="#FF9500"/>
</g>
<path d="M153.487 49.8384C151.831 49.8384 150.487 48.4952 150.487 46.8384V44.5781C150.487 42.9212 151.831 41.5781 153.487 41.5781H180.54C182.197 41.5781 183.54 42.9212 183.54 44.5781V46.8384C183.54 48.4952 182.197 49.8384 180.54 49.8384H175.102C173.445 49.8384 172.102 51.1815 172.102 52.8384V76.3395C172.102 77.9963 170.758 79.3395 169.102 79.3395H164.926C163.269 79.3395 161.926 77.9963 161.926 76.3395V52.8384C161.926 51.1815 160.583 49.8384 158.926 49.8384H153.487Z" fill="#838383"/>
<path d="M191.976 77.7059C191.591 78.9695 190.426 79.8332 189.105 79.8332H184.346C182.3 79.8332 180.854 77.8291 181.499 75.8869L192.057 44.1255C192.465 42.8993 193.612 42.0718 194.904 42.0718H204.688C205.98 42.0718 207.127 42.8993 207.535 44.1255L213.129 60.9525L218.093 75.8869C218.739 77.8291 217.293 79.8332 215.246 79.8332H210.487C209.166 79.8332 208.001 78.9695 207.617 77.7059L199.988 52.6131C199.962 52.5287 199.884 52.471 199.796 52.471V52.471C199.708 52.471 199.63 52.5287 199.604 52.6131L191.976 77.7059ZM189.249 67.9352C189.249 66.2783 190.592 64.9352 192.249 64.9352H207.195C208.852 64.9352 210.195 66.2783 210.195 67.9352V69.6055C210.195 71.2623 208.852 72.6055 207.195 72.6055H192.249C190.592 72.6055 189.249 71.2623 189.249 69.6055V67.9352Z" fill="#838383"/>
<path d="M245.312 53.8723C243.748 53.8723 242.582 52.5069 241.527 51.3535C241.411 51.2271 241.286 51.1079 241.151 50.9959C240.334 50.3076 239.09 49.9634 237.419 49.9634C236.354 49.9634 235.481 50.0924 234.8 50.3506C234.132 50.5964 233.637 50.9345 233.315 51.3647C232.993 51.7949 232.826 52.2866 232.813 52.8397C232.789 53.2945 232.869 53.7063 233.055 54.0751C233.253 54.4316 233.562 54.7573 233.983 55.0523C234.404 55.335 234.943 55.5932 235.599 55.8267C236.255 56.0603 237.035 56.2692 237.938 56.4536L241.058 57.1174C243.162 57.5599 244.964 58.1438 246.462 58.869C247.959 59.5943 249.185 60.4486 250.138 61.4319C251.091 62.403 251.791 63.497 252.236 64.7139C252.694 65.9309 252.93 67.2584 252.942 68.6966C252.93 71.1796 252.305 73.2816 251.067 75.0024C249.829 76.7233 248.058 78.0324 245.756 78.9298C243.466 79.8271 240.711 80.2758 237.493 80.2758C234.188 80.2758 231.303 79.7902 228.84 78.8192C226.389 77.8481 224.482 76.3546 223.121 74.3387C222.226 72.9935 221.625 71.3996 221.318 69.557C221.045 67.9181 222.428 66.5577 224.09 66.5577H228.039C229.633 66.5577 230.821 67.8994 231.631 69.2726C231.671 69.34 231.712 69.4061 231.755 69.471C232.275 70.2577 233.005 70.8539 233.946 71.2595C234.899 71.6651 236.032 71.8679 237.344 71.8679C238.446 71.8679 239.368 71.7327 240.111 71.4623C240.854 71.1919 241.417 70.817 241.801 70.3376C242.185 69.8582 242.383 69.3112 242.395 68.6966C242.383 68.1189 242.191 67.6149 241.819 67.1846C241.46 66.7421 240.866 66.3488 240.037 66.0046C239.207 65.6481 238.087 65.3162 236.676 65.0089L232.888 64.1977C229.521 63.4724 226.865 62.2616 224.922 60.5653C222.991 58.8567 222.031 56.5274 222.044 53.5773C222.031 51.1803 222.675 49.0845 223.975 47.2898C225.287 45.4829 227.1 44.0754 229.415 43.0675C231.743 42.0595 234.41 41.5556 237.419 41.5556C240.489 41.5556 243.144 42.0657 245.385 43.0859C247.625 44.1062 249.352 45.5444 250.565 47.4005C251.268 48.4584 251.772 49.6195 252.076 50.8838C252.464 52.5005 251.07 53.8723 249.407 53.8723H245.312Z" fill="#838383"/>
<path d="M260.685 79.8332C259.028 79.8332 257.685 78.4901 257.685 76.8332V60.9525V45.0718C257.685 43.415 259.028 42.0718 260.685 42.0718H265.009C266.666 42.0718 268.009 43.415 268.009 45.0718V56.9921C268.009 57.1835 268.164 57.3387 268.356 57.3387V57.3387C268.465 57.3387 268.567 57.2872 268.633 57.1999L279.067 43.273C279.634 42.5169 280.523 42.0718 281.468 42.0718H285.932C288.416 42.0718 289.824 44.9192 288.316 46.8933L280.414 57.2338C279.654 58.2283 279.591 59.5901 280.257 60.6502L289.413 75.2384C290.667 77.2363 289.231 79.8332 286.872 79.8332H281.661C280.61 79.8332 279.635 79.283 279.092 78.3828L273.69 69.4265C272.6 67.6201 270.036 67.4728 268.747 69.1426L268.634 69.2878C268.229 69.813 268.009 70.4578 268.009 71.1213V76.8333C268.009 78.4901 266.666 79.8332 265.009 79.8332H260.685Z" fill="#838383"/>
<path d="M69.3668 60.9525C69.3668 65.1564 68.5436 68.7027 66.8971 71.5914C65.2507 74.4677 63.0286 76.6496 60.2309 78.1369C57.4332 79.612 54.3137 80.3495 50.8722 80.3495C47.4061 80.3495 44.2741 79.6058 41.4764 78.1185C38.6911 76.6188 36.4752 74.4309 34.8288 71.5545C33.1947 68.6658 32.3777 65.1319 32.3777 60.9525C32.3777 56.7486 33.1947 53.2085 34.8288 50.3321C36.4752 47.4435 38.6911 45.2616 41.4764 43.7866C44.2741 42.2992 47.4061 41.5556 50.8722 41.5556C54.3137 41.5556 57.4332 42.2992 60.2309 43.7866C63.0286 45.2616 65.2507 47.4435 66.8971 50.3321C68.5436 53.2085 69.3668 56.7486 69.3668 60.9525ZM58.7454 60.9525C58.7454 58.6908 58.4421 56.7855 57.8356 55.2367C57.2414 53.6756 56.3562 52.4956 55.1802 51.6966C54.0166 50.8853 52.5806 50.4796 50.8722 50.4796C49.1639 50.4796 47.7217 50.8853 46.5457 51.6966C45.3821 52.4956 44.4969 53.6756 43.8904 55.2367C43.2962 56.7855 42.9991 58.6908 42.9991 60.9525C42.9991 63.2143 43.2962 65.1257 43.8904 66.6868C44.4969 68.2356 45.3821 69.4157 46.5457 70.2269C47.7217 71.0259 49.1639 71.4254 50.8722 71.4254C52.5806 71.4254 54.0166 71.0259 55.1802 70.2269C56.3562 69.4157 57.2414 68.2356 57.8356 66.6868C58.4421 65.1257 58.7454 63.2143 58.7454 60.9525Z" fill="#838383"/>
<path d="M102.316 42.0718C103.973 42.0718 105.316 43.415 105.316 45.0718V76.8332C105.316 78.4901 103.973 79.8332 102.316 79.8332H98.2718C97.2876 79.8332 96.366 79.3505 95.8056 78.5414L83.003 60.0567C82.9757 60.0173 82.9308 59.9937 82.8828 59.9937V59.9937C82.8021 59.9937 82.7366 60.0592 82.7366 60.14V76.8332C82.7366 78.4901 81.3934 79.8332 79.7366 79.8332H75.4123C73.7555 79.8332 72.4123 78.4901 72.4123 76.8332V45.0718C72.4123 43.415 73.7555 42.0718 75.4123 42.0718H79.594C80.5845 42.0718 81.5112 42.5607 82.0703 43.3783L94.637 61.7529C94.6732 61.8059 94.7333 61.8376 94.7975 61.8376V61.8376C94.9049 61.8376 94.992 61.7505 94.992 61.6431V45.0718C94.992 43.415 96.3352 42.0718 97.992 42.0718H102.316Z" fill="#838383"/>
<path d="M113.975 79.8332C112.318 79.8332 110.975 78.4901 110.975 76.8332V45.0718C110.975 43.415 112.318 42.0718 113.975 42.0718H135.383C137.04 42.0718 138.383 43.415 138.383 45.0718V47.3321C138.383 48.989 137.04 50.3321 135.383 50.3321H124.299C122.642 50.3321 121.299 51.6753 121.299 53.3321V53.8224C121.299 55.4792 122.642 56.8224 124.299 56.8224H133.971C135.628 56.8224 136.971 58.1655 136.971 59.8224V62.0827C136.971 63.7395 135.628 65.0827 133.971 65.0827H124.299C122.642 65.0827 121.299 66.4258 121.299 68.0827V68.5729C121.299 70.2298 122.642 71.5729 124.299 71.5729H135.308C136.965 71.5729 138.308 72.9161 138.308 74.5729V76.8332C138.308 78.4901 136.965 79.8332 135.308 79.8332H113.975Z" fill="#838383"/>
<defs>
<filter id="filter0_dd_72_109" x="0.544312" y="0" width="318.11" height="117" filterUnits="userSpaceOnUse" color-interpolation-filters="sRGB">
<feFlood flood-opacity="0" result="BackgroundImageFix"/>
<feColorMatrix in="SourceAlpha" type="matrix" values="0 0 0 0 0 0 0 0 0 0 0 0 0 0 0 0 0 0 127 0" result="hardAlpha"/>
<feOffset dx="2" dy="2"/>
<feGaussianBlur stdDeviation="2"/>
<feComposite in2="hardAlpha" operator="out"/>
<feColorMatrix type="matrix" values="0 0 0 0 0.0862745 0 0 0 0 0.105882 0 0 0 0 0.113725 0 0 0 0.3 0"/>
<feBlend mode="normal" in2="BackgroundImageFix" result="effect1_dropShadow_72_109"/>
<feColorMatrix in="SourceAlpha" type="matrix" values="0 0 0 0 0 0 0 0 0 0 0 0 0 0 0 0 0 0 127 0" result="hardAlpha"/>
<feOffset dx="-4" dy="-4"/>
<feGaussianBlur stdDeviation="3.5"/>
<feComposite in2="hardAlpha" operator="out"/>
<feColorMatrix type="matrix" values="0 0 0 0 0.980392 0 0 0 0 0.984314 0 0 0 0 1 0 0 0 1 0"/>
<feBlend mode="normal" in2="effect1_dropShadow_72_109" result="effect2_dropShadow_72_109"/>
<feBlend mode="normal" in="SourceGraphic" in2="effect2_dropShadow_72_109" result="shape"/>
</filter>
<filter id="filter1_f_72_109" x="9.54431" y="9" width="30.7816" height="31.3684" filterUnits="userSpaceOnUse" color-interpolation-filters="sRGB">
<feFlood flood-opacity="0" result="BackgroundImageFix"/>
<feBlend mode="normal" in="SourceGraphic" in2="BackgroundImageFix" result="shape"/>
<feGaussianBlur stdDeviation="1" result="effect1_foregroundBlur_72_109"/>
</filter>
</defs>
</svg>
